<?xml version="1.0" standalone="no"?><!DOCTYPE svg PUBLIC "-//W3C//DTD SVG 1.1//EN" "http://www.w3.org/Graphics/SVG/1.1/DTD/svg11.dtd"><svg t="1601175779071" class="icon" viewBox="0 0 1024 1024" version="1.1" xmlns="http://www.w3.org/2000/svg" p-id="3098" width="48" height="48" xmlns:xlink="http://www.w3.org/1999/xlink"><defs><style type="text/css"></style></defs><path d="M733.873 4.922v63.381h177.004L550.719 428.496l44.816 44.811 360.152-360.182v177.027h63.383V4.922H733.873zM473.281 595.556l-44.811-44.811-360.158 360.14V733.899H4.93v285.179h285.196v-63.382H113.128l360.153-360.14z m-278.199-400.42H353.48v-63.382H131.7v221.781h63.381V195.136z m0 221.846H131.7v190.086h63.381V416.982z m411.994-285.29H416.958v63.382h190.119v-63.382z m221.842 697.162H670.525v63.399h221.779V670.456h-63.387v158.398z m0-221.847h63.387V416.915h-63.387v190.092zM416.923 892.314h190.124v-63.399H416.923v63.399z m0 0" p-id="3099" fill="#f5f5f5"></path></svg>